<svg version="1.2" baseProfile="tiny-ps" xmlns="http://www.w3.org/2000/svg" viewBox="0 0 9 6" width="9" height="6">
	<title>select-arrow-svg</title>
	<style>
		tspan { white-space:pre }
		.shp0 { fill: #000000 } 
	</style>
	<path id="Layer" class="shp0" d="M0.16 4.28L4.32 0.12C4.37 0.07 4.45 0.03 4.52 0.03C4.59 0.03 4.67 0.07 4.73 0.12L8.89 4.28C8.94 4.34 8.98 4.42 8.98 4.49C8.98 4.56 8.94 4.64 8.89 4.69L8.44 5.14C8.39 5.19 8.32 5.23 8.24 5.23C8.16 5.23 8.08 5.19 8.03 5.14L4.52 1.63L1.01 5.14C0.96 5.19 0.88 5.23 0.81 5.23C0.74 5.23 0.66 5.19 0.6 5.14L0.16 4.69C0.1 4.64 0.07 4.56 0.07 4.49C0.07 4.42 0.1 4.34 0.16 4.28Z" />
</svg>